<mxfile host="Electron" modified="2023-06-28T10:45:59.312Z" agent="Mozilla/5.0 (Macintosh; Intel Mac OS X 10_15_7) AppleWebKit/537.36 (KHTML, like Gecko) draw.io/21.5.1 Chrome/112.0.5615.204 Electron/24.6.0 Safari/537.36" etag="AynyRUyy5rySevbC6JJ_" version="21.5.1" type="device">
  <diagram name="Seite-1" id="pmr29nUnUcJTHJ69raUX">
    <mxGraphModel dx="2684" dy="2594" grid="1" gridSize="10" guides="1" tooltips="1" connect="1" arrows="1" fold="1" page="1" pageScale="1" pageWidth="827" pageHeight="1169" math="0" shadow="0">
      <root>
        <mxCell id="0" />
        <mxCell id="1" parent="0" />
        <mxCell id="Ygs99mXb4eGiHYUo4rxd-228" value="" style="rounded=1;whiteSpace=wrap;html=1;" vertex="1" parent="1">
          <mxGeometry x="-130" y="-30" width="1120" height="760" as="geometry" />
        </mxCell>
        <mxCell id="Ygs99mXb4eGiHYUo4rxd-2" value="Driver 0" style="rounded=0;whiteSpace=wrap;html=1;" vertex="1" parent="1">
          <mxGeometry x="110" y="410" width="120" height="60" as="geometry" />
        </mxCell>
        <mxCell id="Ygs99mXb4eGiHYUo4rxd-3" value="Driver 1" style="rounded=0;whiteSpace=wrap;html=1;" vertex="1" parent="1">
          <mxGeometry x="290" y="410" width="120" height="60" as="geometry" />
        </mxCell>
        <mxCell id="Ygs99mXb4eGiHYUo4rxd-4" value="Driver 2" style="rounded=0;whiteSpace=wrap;html=1;" vertex="1" parent="1">
          <mxGeometry x="470" y="410" width="120" height="60" as="geometry" />
        </mxCell>
        <mxCell id="Ygs99mXb4eGiHYUo4rxd-5" value="Driver 3" style="rounded=0;whiteSpace=wrap;html=1;" vertex="1" parent="1">
          <mxGeometry x="650" y="410" width="120" height="60" as="geometry" />
        </mxCell>
        <mxCell id="Ygs99mXb4eGiHYUo4rxd-6" value="" style="endArrow=classic;startArrow=classic;html=1;rounded=0;exitX=0.919;exitY=0.994;exitDx=0;exitDy=0;exitPerimeter=0;" edge="1" parent="1" source="Ygs99mXb4eGiHYUo4rxd-2">
          <mxGeometry width="50" height="50" relative="1" as="geometry">
            <mxPoint x="190" y="480" as="sourcePoint" />
            <mxPoint x="300" y="470" as="targetPoint" />
            <Array as="points">
              <mxPoint x="220" y="480" />
              <mxPoint x="300" y="480" />
            </Array>
          </mxGeometry>
        </mxCell>
        <mxCell id="Ygs99mXb4eGiHYUo4rxd-14" value="&lt;font style=&quot;font-size: 8px;&quot;&gt;GND&lt;/font&gt;" style="edgeLabel;html=1;align=center;verticalAlign=middle;resizable=0;points=[];" vertex="1" connectable="0" parent="Ygs99mXb4eGiHYUo4rxd-6">
          <mxGeometry x="-0.0058" y="1" relative="1" as="geometry">
            <mxPoint as="offset" />
          </mxGeometry>
        </mxCell>
        <mxCell id="Ygs99mXb4eGiHYUo4rxd-8" value="" style="endArrow=classic;startArrow=classic;html=1;rounded=0;exitX=0.919;exitY=0.994;exitDx=0;exitDy=0;exitPerimeter=0;entryX=0.17;entryY=1.006;entryDx=0;entryDy=0;entryPerimeter=0;" edge="1" parent="1" target="Ygs99mXb4eGiHYUo4rxd-3">
          <mxGeometry width="50" height="50" relative="1" as="geometry">
            <mxPoint x="210" y="470" as="sourcePoint" />
            <mxPoint x="260" y="470" as="targetPoint" />
            <Array as="points">
              <mxPoint x="210" y="490" />
              <mxPoint x="310" y="490" />
            </Array>
          </mxGeometry>
        </mxCell>
        <mxCell id="Ygs99mXb4eGiHYUo4rxd-13" value="&lt;font style=&quot;font-size: 8px;&quot;&gt;B&lt;/font&gt;" style="edgeLabel;html=1;align=center;verticalAlign=middle;resizable=0;points=[];" vertex="1" connectable="0" parent="Ygs99mXb4eGiHYUo4rxd-8">
          <mxGeometry x="-0.0079" y="1" relative="1" as="geometry">
            <mxPoint x="1" as="offset" />
          </mxGeometry>
        </mxCell>
        <mxCell id="Ygs99mXb4eGiHYUo4rxd-9" value="" style="endArrow=classic;startArrow=classic;html=1;rounded=0;exitX=0.919;exitY=0.994;exitDx=0;exitDy=0;exitPerimeter=0;entryX=0.25;entryY=1;entryDx=0;entryDy=0;" edge="1" parent="1" target="Ygs99mXb4eGiHYUo4rxd-3">
          <mxGeometry width="50" height="50" relative="1" as="geometry">
            <mxPoint x="200" y="470" as="sourcePoint" />
            <mxPoint x="270" y="470" as="targetPoint" />
            <Array as="points">
              <mxPoint x="200" y="500" />
              <mxPoint x="320" y="500" />
            </Array>
          </mxGeometry>
        </mxCell>
        <mxCell id="Ygs99mXb4eGiHYUo4rxd-12" value="&lt;font style=&quot;font-size: 8px;&quot;&gt;A&lt;/font&gt;" style="edgeLabel;html=1;align=center;verticalAlign=middle;resizable=0;points=[];" vertex="1" connectable="0" parent="Ygs99mXb4eGiHYUo4rxd-9">
          <mxGeometry x="-0.0324" y="-1" relative="1" as="geometry">
            <mxPoint x="2" y="-2" as="offset" />
          </mxGeometry>
        </mxCell>
        <mxCell id="Ygs99mXb4eGiHYUo4rxd-10" value="" style="endArrow=classic;startArrow=classic;html=1;rounded=0;exitX=0.668;exitY=0.993;exitDx=0;exitDy=0;exitPerimeter=0;entryX=0.332;entryY=1.025;entryDx=0;entryDy=0;entryPerimeter=0;fillColor=#f8cecc;strokeColor=#b85450;" edge="1" parent="1" source="Ygs99mXb4eGiHYUo4rxd-2" target="Ygs99mXb4eGiHYUo4rxd-3">
          <mxGeometry width="50" height="50" relative="1" as="geometry">
            <mxPoint x="170" y="520" as="sourcePoint" />
            <mxPoint x="260" y="520" as="targetPoint" />
            <Array as="points">
              <mxPoint x="190" y="510" />
              <mxPoint x="330" y="510" />
            </Array>
          </mxGeometry>
        </mxCell>
        <mxCell id="Ygs99mXb4eGiHYUo4rxd-11" value="&lt;font style=&quot;font-size: 8px;&quot;&gt;12V&lt;/font&gt;" style="edgeLabel;html=1;align=center;verticalAlign=middle;resizable=0;points=[];" vertex="1" connectable="0" parent="Ygs99mXb4eGiHYUo4rxd-10">
          <mxGeometry x="-0.095" y="1" relative="1" as="geometry">
            <mxPoint x="10" y="2" as="offset" />
          </mxGeometry>
        </mxCell>
        <mxCell id="Ygs99mXb4eGiHYUo4rxd-15" value="" style="endArrow=classic;startArrow=classic;html=1;rounded=0;exitX=0.919;exitY=0.994;exitDx=0;exitDy=0;exitPerimeter=0;entryX=0.086;entryY=0.996;entryDx=0;entryDy=0;entryPerimeter=0;" edge="1" parent="1" target="Ygs99mXb4eGiHYUo4rxd-4">
          <mxGeometry width="50" height="50" relative="1" as="geometry">
            <mxPoint x="370" y="470" as="sourcePoint" />
            <mxPoint x="420" y="470" as="targetPoint" />
            <Array as="points">
              <mxPoint x="370" y="480" />
              <mxPoint x="480" y="480" />
            </Array>
          </mxGeometry>
        </mxCell>
        <mxCell id="Ygs99mXb4eGiHYUo4rxd-16" value="&lt;font style=&quot;font-size: 8px;&quot;&gt;GND&lt;/font&gt;" style="edgeLabel;html=1;align=center;verticalAlign=middle;resizable=0;points=[];" vertex="1" connectable="0" parent="Ygs99mXb4eGiHYUo4rxd-15">
          <mxGeometry x="-0.0058" y="1" relative="1" as="geometry">
            <mxPoint as="offset" />
          </mxGeometry>
        </mxCell>
        <mxCell id="Ygs99mXb4eGiHYUo4rxd-17" value="" style="endArrow=classic;startArrow=classic;html=1;rounded=0;exitX=0.919;exitY=0.994;exitDx=0;exitDy=0;exitPerimeter=0;entryX=0.167;entryY=1;entryDx=0;entryDy=0;entryPerimeter=0;" edge="1" parent="1" target="Ygs99mXb4eGiHYUo4rxd-4">
          <mxGeometry width="50" height="50" relative="1" as="geometry">
            <mxPoint x="360" y="470" as="sourcePoint" />
            <mxPoint x="430" y="470" as="targetPoint" />
            <Array as="points">
              <mxPoint x="360" y="490" />
              <mxPoint x="490" y="490" />
            </Array>
          </mxGeometry>
        </mxCell>
        <mxCell id="Ygs99mXb4eGiHYUo4rxd-18" value="&lt;font style=&quot;font-size: 8px;&quot;&gt;B&lt;/font&gt;" style="edgeLabel;html=1;align=center;verticalAlign=middle;resizable=0;points=[];" vertex="1" connectable="0" parent="Ygs99mXb4eGiHYUo4rxd-17">
          <mxGeometry x="-0.0079" y="1" relative="1" as="geometry">
            <mxPoint x="1" as="offset" />
          </mxGeometry>
        </mxCell>
        <mxCell id="Ygs99mXb4eGiHYUo4rxd-19" value="" style="endArrow=classic;startArrow=classic;html=1;rounded=0;exitX=0.919;exitY=0.994;exitDx=0;exitDy=0;exitPerimeter=0;entryX=0.25;entryY=1;entryDx=0;entryDy=0;" edge="1" parent="1" target="Ygs99mXb4eGiHYUo4rxd-4">
          <mxGeometry width="50" height="50" relative="1" as="geometry">
            <mxPoint x="350" y="470" as="sourcePoint" />
            <mxPoint x="440" y="470" as="targetPoint" />
            <Array as="points">
              <mxPoint x="350" y="500" />
              <mxPoint x="500" y="500" />
            </Array>
          </mxGeometry>
        </mxCell>
        <mxCell id="Ygs99mXb4eGiHYUo4rxd-20" value="&lt;font style=&quot;font-size: 8px;&quot;&gt;A&lt;/font&gt;" style="edgeLabel;html=1;align=center;verticalAlign=middle;resizable=0;points=[];" vertex="1" connectable="0" parent="Ygs99mXb4eGiHYUo4rxd-19">
          <mxGeometry x="-0.0324" y="-1" relative="1" as="geometry">
            <mxPoint x="2" y="-2" as="offset" />
          </mxGeometry>
        </mxCell>
        <mxCell id="Ygs99mXb4eGiHYUo4rxd-21" value="" style="endArrow=classic;startArrow=classic;html=1;rounded=0;exitX=0.668;exitY=0.993;exitDx=0;exitDy=0;exitPerimeter=0;fillColor=#f8cecc;strokeColor=#b85450;entryX=0.336;entryY=0.992;entryDx=0;entryDy=0;entryPerimeter=0;" edge="1" parent="1" target="Ygs99mXb4eGiHYUo4rxd-4">
          <mxGeometry width="50" height="50" relative="1" as="geometry">
            <mxPoint x="340" y="470" as="sourcePoint" />
            <mxPoint x="480" y="490" as="targetPoint" />
            <Array as="points">
              <mxPoint x="340" y="510" />
              <mxPoint x="510" y="510" />
            </Array>
          </mxGeometry>
        </mxCell>
        <mxCell id="Ygs99mXb4eGiHYUo4rxd-22" value="&lt;font style=&quot;font-size: 8px;&quot;&gt;12V&lt;/font&gt;" style="edgeLabel;html=1;align=center;verticalAlign=middle;resizable=0;points=[];" vertex="1" connectable="0" parent="Ygs99mXb4eGiHYUo4rxd-21">
          <mxGeometry x="-0.095" y="1" relative="1" as="geometry">
            <mxPoint x="10" y="2" as="offset" />
          </mxGeometry>
        </mxCell>
        <mxCell id="Ygs99mXb4eGiHYUo4rxd-23" value="" style="endArrow=classic;startArrow=classic;html=1;rounded=0;exitX=0.919;exitY=0.994;exitDx=0;exitDy=0;exitPerimeter=0;entryX=0.085;entryY=1;entryDx=0;entryDy=0;entryPerimeter=0;" edge="1" parent="1" target="Ygs99mXb4eGiHYUo4rxd-5">
          <mxGeometry width="50" height="50" relative="1" as="geometry">
            <mxPoint x="580" y="470" as="sourcePoint" />
            <mxPoint x="630" y="470" as="targetPoint" />
            <Array as="points">
              <mxPoint x="580" y="480" />
              <mxPoint x="660" y="480" />
            </Array>
          </mxGeometry>
        </mxCell>
        <mxCell id="Ygs99mXb4eGiHYUo4rxd-24" value="&lt;font style=&quot;font-size: 8px;&quot;&gt;GND&lt;/font&gt;" style="edgeLabel;html=1;align=center;verticalAlign=middle;resizable=0;points=[];" vertex="1" connectable="0" parent="Ygs99mXb4eGiHYUo4rxd-23">
          <mxGeometry x="-0.0058" y="1" relative="1" as="geometry">
            <mxPoint as="offset" />
          </mxGeometry>
        </mxCell>
        <mxCell id="Ygs99mXb4eGiHYUo4rxd-25" value="" style="endArrow=classic;startArrow=classic;html=1;rounded=0;exitX=0.919;exitY=0.994;exitDx=0;exitDy=0;exitPerimeter=0;entryX=0.166;entryY=1.011;entryDx=0;entryDy=0;entryPerimeter=0;" edge="1" parent="1" target="Ygs99mXb4eGiHYUo4rxd-5">
          <mxGeometry width="50" height="50" relative="1" as="geometry">
            <mxPoint x="570" y="470" as="sourcePoint" />
            <mxPoint x="640" y="470" as="targetPoint" />
            <Array as="points">
              <mxPoint x="570" y="490" />
              <mxPoint x="670" y="490" />
            </Array>
          </mxGeometry>
        </mxCell>
        <mxCell id="Ygs99mXb4eGiHYUo4rxd-26" value="&lt;font style=&quot;font-size: 8px;&quot;&gt;B&lt;/font&gt;" style="edgeLabel;html=1;align=center;verticalAlign=middle;resizable=0;points=[];" vertex="1" connectable="0" parent="Ygs99mXb4eGiHYUo4rxd-25">
          <mxGeometry x="-0.0079" y="1" relative="1" as="geometry">
            <mxPoint x="1" as="offset" />
          </mxGeometry>
        </mxCell>
        <mxCell id="Ygs99mXb4eGiHYUo4rxd-27" value="" style="endArrow=classic;startArrow=classic;html=1;rounded=0;exitX=0.919;exitY=0.994;exitDx=0;exitDy=0;exitPerimeter=0;entryX=0.25;entryY=1;entryDx=0;entryDy=0;" edge="1" parent="1" target="Ygs99mXb4eGiHYUo4rxd-5">
          <mxGeometry width="50" height="50" relative="1" as="geometry">
            <mxPoint x="560" y="470" as="sourcePoint" />
            <mxPoint x="650" y="470" as="targetPoint" />
            <Array as="points">
              <mxPoint x="560" y="500" />
              <mxPoint x="680" y="500" />
            </Array>
          </mxGeometry>
        </mxCell>
        <mxCell id="Ygs99mXb4eGiHYUo4rxd-28" value="&lt;font style=&quot;font-size: 8px;&quot;&gt;A&lt;/font&gt;" style="edgeLabel;html=1;align=center;verticalAlign=middle;resizable=0;points=[];" vertex="1" connectable="0" parent="Ygs99mXb4eGiHYUo4rxd-27">
          <mxGeometry x="-0.0324" y="-1" relative="1" as="geometry">
            <mxPoint x="2" y="-2" as="offset" />
          </mxGeometry>
        </mxCell>
        <mxCell id="Ygs99mXb4eGiHYUo4rxd-29" value="" style="endArrow=classic;startArrow=classic;html=1;rounded=0;exitX=0.668;exitY=0.993;exitDx=0;exitDy=0;exitPerimeter=0;entryX=0.333;entryY=1;entryDx=0;entryDy=0;entryPerimeter=0;fillColor=#f8cecc;strokeColor=#b85450;" edge="1" parent="1" target="Ygs99mXb4eGiHYUo4rxd-5">
          <mxGeometry width="50" height="50" relative="1" as="geometry">
            <mxPoint x="550" y="470" as="sourcePoint" />
            <mxPoint x="660" y="472" as="targetPoint" />
            <Array as="points">
              <mxPoint x="550" y="510" />
              <mxPoint x="690" y="510" />
            </Array>
          </mxGeometry>
        </mxCell>
        <mxCell id="Ygs99mXb4eGiHYUo4rxd-30" value="&lt;font style=&quot;font-size: 8px;&quot;&gt;12V&lt;/font&gt;" style="edgeLabel;html=1;align=center;verticalAlign=middle;resizable=0;points=[];" vertex="1" connectable="0" parent="Ygs99mXb4eGiHYUo4rxd-29">
          <mxGeometry x="-0.095" y="1" relative="1" as="geometry">
            <mxPoint x="10" y="2" as="offset" />
          </mxGeometry>
        </mxCell>
        <mxCell id="Ygs99mXb4eGiHYUo4rxd-74" value="Node 0" style="rounded=0;whiteSpace=wrap;html=1;" vertex="1" parent="1">
          <mxGeometry x="100" y="310" width="70" height="60" as="geometry" />
        </mxCell>
        <mxCell id="Ygs99mXb4eGiHYUo4rxd-75" value="Node 7" style="rounded=0;whiteSpace=wrap;html=1;" vertex="1" parent="1">
          <mxGeometry x="100" y="130" width="70" height="60" as="geometry" />
        </mxCell>
        <mxCell id="Ygs99mXb4eGiHYUo4rxd-76" value="" style="endArrow=classic;html=1;rounded=0;entryX=0.25;entryY=0;entryDx=0;entryDy=0;" edge="1" parent="1" target="Ygs99mXb4eGiHYUo4rxd-74">
          <mxGeometry width="50" height="50" relative="1" as="geometry">
            <mxPoint x="118" y="280" as="sourcePoint" />
            <mxPoint x="116.5" y="310" as="targetPoint" />
          </mxGeometry>
        </mxCell>
        <mxCell id="Ygs99mXb4eGiHYUo4rxd-77" value="" style="endArrow=none;dashed=1;html=1;dashPattern=1 3;strokeWidth=2;rounded=0;" edge="1" parent="1">
          <mxGeometry width="50" height="50" relative="1" as="geometry">
            <mxPoint x="118" y="220" as="sourcePoint" />
            <mxPoint x="118" y="280" as="targetPoint" />
          </mxGeometry>
        </mxCell>
        <mxCell id="Ygs99mXb4eGiHYUo4rxd-78" value="Node data +" style="edgeLabel;html=1;align=center;verticalAlign=middle;resizable=0;points=[];" vertex="1" connectable="0" parent="Ygs99mXb4eGiHYUo4rxd-77">
          <mxGeometry x="-0.1858" y="-1" relative="1" as="geometry">
            <mxPoint y="-14" as="offset" />
          </mxGeometry>
        </mxCell>
        <mxCell id="Ygs99mXb4eGiHYUo4rxd-79" value="" style="endArrow=classic;html=1;rounded=0;entryX=0.25;entryY=1;entryDx=0;entryDy=0;" edge="1" parent="1" target="Ygs99mXb4eGiHYUo4rxd-75">
          <mxGeometry width="50" height="50" relative="1" as="geometry">
            <mxPoint x="118" y="220" as="sourcePoint" />
            <mxPoint x="108" y="220" as="targetPoint" />
          </mxGeometry>
        </mxCell>
        <mxCell id="Ygs99mXb4eGiHYUo4rxd-80" value="" style="endArrow=classic;html=1;rounded=0;entryX=0.25;entryY=0;entryDx=0;entryDy=0;" edge="1" parent="1">
          <mxGeometry width="50" height="50" relative="1" as="geometry">
            <mxPoint x="148" y="280" as="sourcePoint" />
            <mxPoint x="148" y="310" as="targetPoint" />
          </mxGeometry>
        </mxCell>
        <mxCell id="Ygs99mXb4eGiHYUo4rxd-81" value="" style="endArrow=none;dashed=1;html=1;dashPattern=1 3;strokeWidth=2;rounded=0;" edge="1" parent="1">
          <mxGeometry width="50" height="50" relative="1" as="geometry">
            <mxPoint x="148" y="220" as="sourcePoint" />
            <mxPoint x="148" y="280" as="targetPoint" />
          </mxGeometry>
        </mxCell>
        <mxCell id="Ygs99mXb4eGiHYUo4rxd-82" value="Node data -" style="edgeLabel;html=1;align=center;verticalAlign=middle;resizable=0;points=[];" vertex="1" connectable="0" parent="Ygs99mXb4eGiHYUo4rxd-81">
          <mxGeometry x="-0.1858" y="-1" relative="1" as="geometry">
            <mxPoint y="16" as="offset" />
          </mxGeometry>
        </mxCell>
        <mxCell id="Ygs99mXb4eGiHYUo4rxd-83" value="" style="endArrow=classic;html=1;rounded=0;entryX=0.25;entryY=1;entryDx=0;entryDy=0;" edge="1" parent="1">
          <mxGeometry width="50" height="50" relative="1" as="geometry">
            <mxPoint x="148" y="220" as="sourcePoint" />
            <mxPoint x="148" y="190" as="targetPoint" />
          </mxGeometry>
        </mxCell>
        <mxCell id="Ygs99mXb4eGiHYUo4rxd-84" value="Node 8" style="rounded=0;whiteSpace=wrap;html=1;" vertex="1" parent="1">
          <mxGeometry x="184" y="310" width="70" height="60" as="geometry" />
        </mxCell>
        <mxCell id="Ygs99mXb4eGiHYUo4rxd-85" value="Node 15" style="rounded=0;whiteSpace=wrap;html=1;" vertex="1" parent="1">
          <mxGeometry x="184" y="130" width="70" height="60" as="geometry" />
        </mxCell>
        <mxCell id="Ygs99mXb4eGiHYUo4rxd-86" value="" style="endArrow=classic;html=1;rounded=0;entryX=0.25;entryY=0;entryDx=0;entryDy=0;" edge="1" parent="1" target="Ygs99mXb4eGiHYUo4rxd-84">
          <mxGeometry width="50" height="50" relative="1" as="geometry">
            <mxPoint x="202" y="280" as="sourcePoint" />
            <mxPoint x="200.5" y="310" as="targetPoint" />
          </mxGeometry>
        </mxCell>
        <mxCell id="Ygs99mXb4eGiHYUo4rxd-87" value="" style="endArrow=none;dashed=1;html=1;dashPattern=1 3;strokeWidth=2;rounded=0;" edge="1" parent="1">
          <mxGeometry width="50" height="50" relative="1" as="geometry">
            <mxPoint x="202" y="220" as="sourcePoint" />
            <mxPoint x="202" y="280" as="targetPoint" />
          </mxGeometry>
        </mxCell>
        <mxCell id="Ygs99mXb4eGiHYUo4rxd-88" value="Node data +" style="edgeLabel;html=1;align=center;verticalAlign=middle;resizable=0;points=[];" vertex="1" connectable="0" parent="Ygs99mXb4eGiHYUo4rxd-87">
          <mxGeometry x="-0.1858" y="-1" relative="1" as="geometry">
            <mxPoint y="-14" as="offset" />
          </mxGeometry>
        </mxCell>
        <mxCell id="Ygs99mXb4eGiHYUo4rxd-89" value="" style="endArrow=classic;html=1;rounded=0;entryX=0.25;entryY=1;entryDx=0;entryDy=0;" edge="1" parent="1" target="Ygs99mXb4eGiHYUo4rxd-85">
          <mxGeometry width="50" height="50" relative="1" as="geometry">
            <mxPoint x="202" y="220" as="sourcePoint" />
            <mxPoint x="192" y="220" as="targetPoint" />
          </mxGeometry>
        </mxCell>
        <mxCell id="Ygs99mXb4eGiHYUo4rxd-90" value="" style="endArrow=classic;html=1;rounded=0;entryX=0.25;entryY=0;entryDx=0;entryDy=0;" edge="1" parent="1">
          <mxGeometry width="50" height="50" relative="1" as="geometry">
            <mxPoint x="232" y="280" as="sourcePoint" />
            <mxPoint x="232" y="310" as="targetPoint" />
          </mxGeometry>
        </mxCell>
        <mxCell id="Ygs99mXb4eGiHYUo4rxd-91" value="" style="endArrow=none;dashed=1;html=1;dashPattern=1 3;strokeWidth=2;rounded=0;" edge="1" parent="1">
          <mxGeometry width="50" height="50" relative="1" as="geometry">
            <mxPoint x="232" y="220" as="sourcePoint" />
            <mxPoint x="232" y="280" as="targetPoint" />
          </mxGeometry>
        </mxCell>
        <mxCell id="Ygs99mXb4eGiHYUo4rxd-92" value="Node data -" style="edgeLabel;html=1;align=center;verticalAlign=middle;resizable=0;points=[];" vertex="1" connectable="0" parent="Ygs99mXb4eGiHYUo4rxd-91">
          <mxGeometry x="-0.1858" y="-1" relative="1" as="geometry">
            <mxPoint y="16" as="offset" />
          </mxGeometry>
        </mxCell>
        <mxCell id="Ygs99mXb4eGiHYUo4rxd-93" value="" style="endArrow=classic;html=1;rounded=0;entryX=0.25;entryY=1;entryDx=0;entryDy=0;" edge="1" parent="1">
          <mxGeometry width="50" height="50" relative="1" as="geometry">
            <mxPoint x="232" y="220" as="sourcePoint" />
            <mxPoint x="232" y="190" as="targetPoint" />
          </mxGeometry>
        </mxCell>
        <mxCell id="Ygs99mXb4eGiHYUo4rxd-94" value="Node 0" style="rounded=0;whiteSpace=wrap;html=1;" vertex="1" parent="1">
          <mxGeometry x="273" y="310" width="70" height="60" as="geometry" />
        </mxCell>
        <mxCell id="Ygs99mXb4eGiHYUo4rxd-95" value="Node 7" style="rounded=0;whiteSpace=wrap;html=1;" vertex="1" parent="1">
          <mxGeometry x="273" y="130" width="70" height="60" as="geometry" />
        </mxCell>
        <mxCell id="Ygs99mXb4eGiHYUo4rxd-96" value="" style="endArrow=classic;html=1;rounded=0;entryX=0.25;entryY=0;entryDx=0;entryDy=0;" edge="1" parent="1" target="Ygs99mXb4eGiHYUo4rxd-94">
          <mxGeometry width="50" height="50" relative="1" as="geometry">
            <mxPoint x="291" y="280" as="sourcePoint" />
            <mxPoint x="289.5" y="310" as="targetPoint" />
          </mxGeometry>
        </mxCell>
        <mxCell id="Ygs99mXb4eGiHYUo4rxd-97" value="" style="endArrow=none;dashed=1;html=1;dashPattern=1 3;strokeWidth=2;rounded=0;" edge="1" parent="1">
          <mxGeometry width="50" height="50" relative="1" as="geometry">
            <mxPoint x="291" y="220" as="sourcePoint" />
            <mxPoint x="291" y="280" as="targetPoint" />
          </mxGeometry>
        </mxCell>
        <mxCell id="Ygs99mXb4eGiHYUo4rxd-98" value="Node data +" style="edgeLabel;html=1;align=center;verticalAlign=middle;resizable=0;points=[];" vertex="1" connectable="0" parent="Ygs99mXb4eGiHYUo4rxd-97">
          <mxGeometry x="-0.1858" y="-1" relative="1" as="geometry">
            <mxPoint y="-14" as="offset" />
          </mxGeometry>
        </mxCell>
        <mxCell id="Ygs99mXb4eGiHYUo4rxd-99" value="" style="endArrow=classic;html=1;rounded=0;entryX=0.25;entryY=1;entryDx=0;entryDy=0;" edge="1" parent="1" target="Ygs99mXb4eGiHYUo4rxd-95">
          <mxGeometry width="50" height="50" relative="1" as="geometry">
            <mxPoint x="291" y="220" as="sourcePoint" />
            <mxPoint x="281" y="220" as="targetPoint" />
          </mxGeometry>
        </mxCell>
        <mxCell id="Ygs99mXb4eGiHYUo4rxd-100" value="" style="endArrow=classic;html=1;rounded=0;entryX=0.25;entryY=0;entryDx=0;entryDy=0;" edge="1" parent="1">
          <mxGeometry width="50" height="50" relative="1" as="geometry">
            <mxPoint x="321" y="280" as="sourcePoint" />
            <mxPoint x="321" y="310" as="targetPoint" />
          </mxGeometry>
        </mxCell>
        <mxCell id="Ygs99mXb4eGiHYUo4rxd-101" value="" style="endArrow=none;dashed=1;html=1;dashPattern=1 3;strokeWidth=2;rounded=0;" edge="1" parent="1">
          <mxGeometry width="50" height="50" relative="1" as="geometry">
            <mxPoint x="321" y="220" as="sourcePoint" />
            <mxPoint x="321" y="280" as="targetPoint" />
          </mxGeometry>
        </mxCell>
        <mxCell id="Ygs99mXb4eGiHYUo4rxd-102" value="Node data -" style="edgeLabel;html=1;align=center;verticalAlign=middle;resizable=0;points=[];" vertex="1" connectable="0" parent="Ygs99mXb4eGiHYUo4rxd-101">
          <mxGeometry x="-0.1858" y="-1" relative="1" as="geometry">
            <mxPoint y="16" as="offset" />
          </mxGeometry>
        </mxCell>
        <mxCell id="Ygs99mXb4eGiHYUo4rxd-103" value="" style="endArrow=classic;html=1;rounded=0;entryX=0.25;entryY=1;entryDx=0;entryDy=0;" edge="1" parent="1">
          <mxGeometry width="50" height="50" relative="1" as="geometry">
            <mxPoint x="321" y="220" as="sourcePoint" />
            <mxPoint x="321" y="190" as="targetPoint" />
          </mxGeometry>
        </mxCell>
        <mxCell id="Ygs99mXb4eGiHYUo4rxd-104" value="Node 8" style="rounded=0;whiteSpace=wrap;html=1;" vertex="1" parent="1">
          <mxGeometry x="357" y="310" width="70" height="60" as="geometry" />
        </mxCell>
        <mxCell id="Ygs99mXb4eGiHYUo4rxd-105" value="Node 15" style="rounded=0;whiteSpace=wrap;html=1;" vertex="1" parent="1">
          <mxGeometry x="357" y="130" width="70" height="60" as="geometry" />
        </mxCell>
        <mxCell id="Ygs99mXb4eGiHYUo4rxd-106" value="" style="endArrow=classic;html=1;rounded=0;entryX=0.25;entryY=0;entryDx=0;entryDy=0;" edge="1" parent="1" target="Ygs99mXb4eGiHYUo4rxd-104">
          <mxGeometry width="50" height="50" relative="1" as="geometry">
            <mxPoint x="375" y="280" as="sourcePoint" />
            <mxPoint x="373.5" y="310" as="targetPoint" />
          </mxGeometry>
        </mxCell>
        <mxCell id="Ygs99mXb4eGiHYUo4rxd-107" value="" style="endArrow=none;dashed=1;html=1;dashPattern=1 3;strokeWidth=2;rounded=0;" edge="1" parent="1">
          <mxGeometry width="50" height="50" relative="1" as="geometry">
            <mxPoint x="375" y="220" as="sourcePoint" />
            <mxPoint x="375" y="280" as="targetPoint" />
          </mxGeometry>
        </mxCell>
        <mxCell id="Ygs99mXb4eGiHYUo4rxd-108" value="Node data +" style="edgeLabel;html=1;align=center;verticalAlign=middle;resizable=0;points=[];" vertex="1" connectable="0" parent="Ygs99mXb4eGiHYUo4rxd-107">
          <mxGeometry x="-0.1858" y="-1" relative="1" as="geometry">
            <mxPoint y="-14" as="offset" />
          </mxGeometry>
        </mxCell>
        <mxCell id="Ygs99mXb4eGiHYUo4rxd-109" value="" style="endArrow=classic;html=1;rounded=0;entryX=0.25;entryY=1;entryDx=0;entryDy=0;" edge="1" parent="1" target="Ygs99mXb4eGiHYUo4rxd-105">
          <mxGeometry width="50" height="50" relative="1" as="geometry">
            <mxPoint x="375" y="220" as="sourcePoint" />
            <mxPoint x="365" y="220" as="targetPoint" />
          </mxGeometry>
        </mxCell>
        <mxCell id="Ygs99mXb4eGiHYUo4rxd-110" value="" style="endArrow=classic;html=1;rounded=0;entryX=0.25;entryY=0;entryDx=0;entryDy=0;" edge="1" parent="1">
          <mxGeometry width="50" height="50" relative="1" as="geometry">
            <mxPoint x="405" y="280" as="sourcePoint" />
            <mxPoint x="405" y="310" as="targetPoint" />
          </mxGeometry>
        </mxCell>
        <mxCell id="Ygs99mXb4eGiHYUo4rxd-111" value="" style="endArrow=none;dashed=1;html=1;dashPattern=1 3;strokeWidth=2;rounded=0;" edge="1" parent="1">
          <mxGeometry width="50" height="50" relative="1" as="geometry">
            <mxPoint x="405" y="220" as="sourcePoint" />
            <mxPoint x="405" y="280" as="targetPoint" />
          </mxGeometry>
        </mxCell>
        <mxCell id="Ygs99mXb4eGiHYUo4rxd-112" value="Node data -" style="edgeLabel;html=1;align=center;verticalAlign=middle;resizable=0;points=[];" vertex="1" connectable="0" parent="Ygs99mXb4eGiHYUo4rxd-111">
          <mxGeometry x="-0.1858" y="-1" relative="1" as="geometry">
            <mxPoint y="16" as="offset" />
          </mxGeometry>
        </mxCell>
        <mxCell id="Ygs99mXb4eGiHYUo4rxd-113" value="" style="endArrow=classic;html=1;rounded=0;entryX=0.25;entryY=1;entryDx=0;entryDy=0;" edge="1" parent="1">
          <mxGeometry width="50" height="50" relative="1" as="geometry">
            <mxPoint x="405" y="220" as="sourcePoint" />
            <mxPoint x="405" y="190" as="targetPoint" />
          </mxGeometry>
        </mxCell>
        <mxCell id="Ygs99mXb4eGiHYUo4rxd-114" value="Node 0" style="rounded=0;whiteSpace=wrap;html=1;" vertex="1" parent="1">
          <mxGeometry x="453" y="310" width="70" height="60" as="geometry" />
        </mxCell>
        <mxCell id="Ygs99mXb4eGiHYUo4rxd-115" value="Node 7" style="rounded=0;whiteSpace=wrap;html=1;" vertex="1" parent="1">
          <mxGeometry x="453" y="130" width="70" height="60" as="geometry" />
        </mxCell>
        <mxCell id="Ygs99mXb4eGiHYUo4rxd-116" value="" style="endArrow=classic;html=1;rounded=0;entryX=0.25;entryY=0;entryDx=0;entryDy=0;" edge="1" parent="1" target="Ygs99mXb4eGiHYUo4rxd-114">
          <mxGeometry width="50" height="50" relative="1" as="geometry">
            <mxPoint x="471" y="280" as="sourcePoint" />
            <mxPoint x="469.5" y="310" as="targetPoint" />
          </mxGeometry>
        </mxCell>
        <mxCell id="Ygs99mXb4eGiHYUo4rxd-117" value="" style="endArrow=none;dashed=1;html=1;dashPattern=1 3;strokeWidth=2;rounded=0;" edge="1" parent="1">
          <mxGeometry width="50" height="50" relative="1" as="geometry">
            <mxPoint x="471" y="220" as="sourcePoint" />
            <mxPoint x="471" y="280" as="targetPoint" />
          </mxGeometry>
        </mxCell>
        <mxCell id="Ygs99mXb4eGiHYUo4rxd-118" value="Node data +" style="edgeLabel;html=1;align=center;verticalAlign=middle;resizable=0;points=[];" vertex="1" connectable="0" parent="Ygs99mXb4eGiHYUo4rxd-117">
          <mxGeometry x="-0.1858" y="-1" relative="1" as="geometry">
            <mxPoint y="-14" as="offset" />
          </mxGeometry>
        </mxCell>
        <mxCell id="Ygs99mXb4eGiHYUo4rxd-119" value="" style="endArrow=classic;html=1;rounded=0;entryX=0.25;entryY=1;entryDx=0;entryDy=0;" edge="1" parent="1" target="Ygs99mXb4eGiHYUo4rxd-115">
          <mxGeometry width="50" height="50" relative="1" as="geometry">
            <mxPoint x="471" y="220" as="sourcePoint" />
            <mxPoint x="461" y="220" as="targetPoint" />
          </mxGeometry>
        </mxCell>
        <mxCell id="Ygs99mXb4eGiHYUo4rxd-120" value="" style="endArrow=classic;html=1;rounded=0;entryX=0.25;entryY=0;entryDx=0;entryDy=0;" edge="1" parent="1">
          <mxGeometry width="50" height="50" relative="1" as="geometry">
            <mxPoint x="501" y="280" as="sourcePoint" />
            <mxPoint x="501" y="310" as="targetPoint" />
          </mxGeometry>
        </mxCell>
        <mxCell id="Ygs99mXb4eGiHYUo4rxd-121" value="" style="endArrow=none;dashed=1;html=1;dashPattern=1 3;strokeWidth=2;rounded=0;" edge="1" parent="1">
          <mxGeometry width="50" height="50" relative="1" as="geometry">
            <mxPoint x="501" y="220" as="sourcePoint" />
            <mxPoint x="501" y="280" as="targetPoint" />
          </mxGeometry>
        </mxCell>
        <mxCell id="Ygs99mXb4eGiHYUo4rxd-122" value="Node data -" style="edgeLabel;html=1;align=center;verticalAlign=middle;resizable=0;points=[];" vertex="1" connectable="0" parent="Ygs99mXb4eGiHYUo4rxd-121">
          <mxGeometry x="-0.1858" y="-1" relative="1" as="geometry">
            <mxPoint y="16" as="offset" />
          </mxGeometry>
        </mxCell>
        <mxCell id="Ygs99mXb4eGiHYUo4rxd-123" value="" style="endArrow=classic;html=1;rounded=0;entryX=0.25;entryY=1;entryDx=0;entryDy=0;" edge="1" parent="1">
          <mxGeometry width="50" height="50" relative="1" as="geometry">
            <mxPoint x="501" y="220" as="sourcePoint" />
            <mxPoint x="501" y="190" as="targetPoint" />
          </mxGeometry>
        </mxCell>
        <mxCell id="Ygs99mXb4eGiHYUo4rxd-124" value="Node 8" style="rounded=0;whiteSpace=wrap;html=1;" vertex="1" parent="1">
          <mxGeometry x="537" y="310" width="70" height="60" as="geometry" />
        </mxCell>
        <mxCell id="Ygs99mXb4eGiHYUo4rxd-125" value="Node 15" style="rounded=0;whiteSpace=wrap;html=1;" vertex="1" parent="1">
          <mxGeometry x="537" y="130" width="70" height="60" as="geometry" />
        </mxCell>
        <mxCell id="Ygs99mXb4eGiHYUo4rxd-126" value="" style="endArrow=classic;html=1;rounded=0;entryX=0.25;entryY=0;entryDx=0;entryDy=0;" edge="1" parent="1" target="Ygs99mXb4eGiHYUo4rxd-124">
          <mxGeometry width="50" height="50" relative="1" as="geometry">
            <mxPoint x="555" y="280" as="sourcePoint" />
            <mxPoint x="553.5" y="310" as="targetPoint" />
          </mxGeometry>
        </mxCell>
        <mxCell id="Ygs99mXb4eGiHYUo4rxd-127" value="" style="endArrow=none;dashed=1;html=1;dashPattern=1 3;strokeWidth=2;rounded=0;" edge="1" parent="1">
          <mxGeometry width="50" height="50" relative="1" as="geometry">
            <mxPoint x="555" y="220" as="sourcePoint" />
            <mxPoint x="555" y="280" as="targetPoint" />
          </mxGeometry>
        </mxCell>
        <mxCell id="Ygs99mXb4eGiHYUo4rxd-128" value="Node data +" style="edgeLabel;html=1;align=center;verticalAlign=middle;resizable=0;points=[];" vertex="1" connectable="0" parent="Ygs99mXb4eGiHYUo4rxd-127">
          <mxGeometry x="-0.1858" y="-1" relative="1" as="geometry">
            <mxPoint y="-14" as="offset" />
          </mxGeometry>
        </mxCell>
        <mxCell id="Ygs99mXb4eGiHYUo4rxd-129" value="" style="endArrow=classic;html=1;rounded=0;entryX=0.25;entryY=1;entryDx=0;entryDy=0;" edge="1" parent="1" target="Ygs99mXb4eGiHYUo4rxd-125">
          <mxGeometry width="50" height="50" relative="1" as="geometry">
            <mxPoint x="555" y="220" as="sourcePoint" />
            <mxPoint x="545" y="220" as="targetPoint" />
          </mxGeometry>
        </mxCell>
        <mxCell id="Ygs99mXb4eGiHYUo4rxd-130" value="" style="endArrow=classic;html=1;rounded=0;entryX=0.25;entryY=0;entryDx=0;entryDy=0;" edge="1" parent="1">
          <mxGeometry width="50" height="50" relative="1" as="geometry">
            <mxPoint x="585" y="280" as="sourcePoint" />
            <mxPoint x="585" y="310" as="targetPoint" />
          </mxGeometry>
        </mxCell>
        <mxCell id="Ygs99mXb4eGiHYUo4rxd-131" value="" style="endArrow=none;dashed=1;html=1;dashPattern=1 3;strokeWidth=2;rounded=0;" edge="1" parent="1">
          <mxGeometry width="50" height="50" relative="1" as="geometry">
            <mxPoint x="585" y="220" as="sourcePoint" />
            <mxPoint x="585" y="280" as="targetPoint" />
          </mxGeometry>
        </mxCell>
        <mxCell id="Ygs99mXb4eGiHYUo4rxd-132" value="Node data -" style="edgeLabel;html=1;align=center;verticalAlign=middle;resizable=0;points=[];" vertex="1" connectable="0" parent="Ygs99mXb4eGiHYUo4rxd-131">
          <mxGeometry x="-0.1858" y="-1" relative="1" as="geometry">
            <mxPoint y="16" as="offset" />
          </mxGeometry>
        </mxCell>
        <mxCell id="Ygs99mXb4eGiHYUo4rxd-133" value="" style="endArrow=classic;html=1;rounded=0;entryX=0.25;entryY=1;entryDx=0;entryDy=0;" edge="1" parent="1">
          <mxGeometry width="50" height="50" relative="1" as="geometry">
            <mxPoint x="585" y="220" as="sourcePoint" />
            <mxPoint x="585" y="190" as="targetPoint" />
          </mxGeometry>
        </mxCell>
        <mxCell id="Ygs99mXb4eGiHYUo4rxd-154" value="Node 0" style="rounded=0;whiteSpace=wrap;html=1;" vertex="1" parent="1">
          <mxGeometry x="633" y="310" width="70" height="60" as="geometry" />
        </mxCell>
        <mxCell id="Ygs99mXb4eGiHYUo4rxd-155" value="Node 7" style="rounded=0;whiteSpace=wrap;html=1;" vertex="1" parent="1">
          <mxGeometry x="633" y="130" width="70" height="60" as="geometry" />
        </mxCell>
        <mxCell id="Ygs99mXb4eGiHYUo4rxd-156" value="" style="endArrow=classic;html=1;rounded=0;entryX=0.25;entryY=0;entryDx=0;entryDy=0;" edge="1" parent="1" target="Ygs99mXb4eGiHYUo4rxd-154">
          <mxGeometry width="50" height="50" relative="1" as="geometry">
            <mxPoint x="651" y="280" as="sourcePoint" />
            <mxPoint x="649.5" y="310" as="targetPoint" />
          </mxGeometry>
        </mxCell>
        <mxCell id="Ygs99mXb4eGiHYUo4rxd-157" value="" style="endArrow=none;dashed=1;html=1;dashPattern=1 3;strokeWidth=2;rounded=0;" edge="1" parent="1">
          <mxGeometry width="50" height="50" relative="1" as="geometry">
            <mxPoint x="651" y="220" as="sourcePoint" />
            <mxPoint x="651" y="280" as="targetPoint" />
          </mxGeometry>
        </mxCell>
        <mxCell id="Ygs99mXb4eGiHYUo4rxd-158" value="Node data +" style="edgeLabel;html=1;align=center;verticalAlign=middle;resizable=0;points=[];" vertex="1" connectable="0" parent="Ygs99mXb4eGiHYUo4rxd-157">
          <mxGeometry x="-0.1858" y="-1" relative="1" as="geometry">
            <mxPoint y="-14" as="offset" />
          </mxGeometry>
        </mxCell>
        <mxCell id="Ygs99mXb4eGiHYUo4rxd-159" value="" style="endArrow=classic;html=1;rounded=0;entryX=0.25;entryY=1;entryDx=0;entryDy=0;" edge="1" parent="1" target="Ygs99mXb4eGiHYUo4rxd-155">
          <mxGeometry width="50" height="50" relative="1" as="geometry">
            <mxPoint x="651" y="220" as="sourcePoint" />
            <mxPoint x="641" y="220" as="targetPoint" />
          </mxGeometry>
        </mxCell>
        <mxCell id="Ygs99mXb4eGiHYUo4rxd-160" value="" style="endArrow=classic;html=1;rounded=0;entryX=0.25;entryY=0;entryDx=0;entryDy=0;" edge="1" parent="1">
          <mxGeometry width="50" height="50" relative="1" as="geometry">
            <mxPoint x="681" y="280" as="sourcePoint" />
            <mxPoint x="681" y="310" as="targetPoint" />
          </mxGeometry>
        </mxCell>
        <mxCell id="Ygs99mXb4eGiHYUo4rxd-161" value="" style="endArrow=none;dashed=1;html=1;dashPattern=1 3;strokeWidth=2;rounded=0;" edge="1" parent="1">
          <mxGeometry width="50" height="50" relative="1" as="geometry">
            <mxPoint x="681" y="220" as="sourcePoint" />
            <mxPoint x="681" y="280" as="targetPoint" />
          </mxGeometry>
        </mxCell>
        <mxCell id="Ygs99mXb4eGiHYUo4rxd-162" value="Node data -" style="edgeLabel;html=1;align=center;verticalAlign=middle;resizable=0;points=[];" vertex="1" connectable="0" parent="Ygs99mXb4eGiHYUo4rxd-161">
          <mxGeometry x="-0.1858" y="-1" relative="1" as="geometry">
            <mxPoint y="16" as="offset" />
          </mxGeometry>
        </mxCell>
        <mxCell id="Ygs99mXb4eGiHYUo4rxd-163" value="" style="endArrow=classic;html=1;rounded=0;entryX=0.25;entryY=1;entryDx=0;entryDy=0;" edge="1" parent="1">
          <mxGeometry width="50" height="50" relative="1" as="geometry">
            <mxPoint x="681" y="220" as="sourcePoint" />
            <mxPoint x="681" y="190" as="targetPoint" />
          </mxGeometry>
        </mxCell>
        <mxCell id="Ygs99mXb4eGiHYUo4rxd-164" value="Node 8" style="rounded=0;whiteSpace=wrap;html=1;" vertex="1" parent="1">
          <mxGeometry x="717" y="310" width="70" height="60" as="geometry" />
        </mxCell>
        <mxCell id="Ygs99mXb4eGiHYUo4rxd-165" value="Node 15" style="rounded=0;whiteSpace=wrap;html=1;" vertex="1" parent="1">
          <mxGeometry x="717" y="130" width="70" height="60" as="geometry" />
        </mxCell>
        <mxCell id="Ygs99mXb4eGiHYUo4rxd-166" value="" style="endArrow=classic;html=1;rounded=0;entryX=0.25;entryY=0;entryDx=0;entryDy=0;" edge="1" parent="1" target="Ygs99mXb4eGiHYUo4rxd-164">
          <mxGeometry width="50" height="50" relative="1" as="geometry">
            <mxPoint x="735" y="280" as="sourcePoint" />
            <mxPoint x="733.5" y="310" as="targetPoint" />
          </mxGeometry>
        </mxCell>
        <mxCell id="Ygs99mXb4eGiHYUo4rxd-167" value="" style="endArrow=none;dashed=1;html=1;dashPattern=1 3;strokeWidth=2;rounded=0;" edge="1" parent="1">
          <mxGeometry width="50" height="50" relative="1" as="geometry">
            <mxPoint x="735" y="220" as="sourcePoint" />
            <mxPoint x="735" y="280" as="targetPoint" />
          </mxGeometry>
        </mxCell>
        <mxCell id="Ygs99mXb4eGiHYUo4rxd-168" value="Node data +" style="edgeLabel;html=1;align=center;verticalAlign=middle;resizable=0;points=[];" vertex="1" connectable="0" parent="Ygs99mXb4eGiHYUo4rxd-167">
          <mxGeometry x="-0.1858" y="-1" relative="1" as="geometry">
            <mxPoint y="-14" as="offset" />
          </mxGeometry>
        </mxCell>
        <mxCell id="Ygs99mXb4eGiHYUo4rxd-169" value="" style="endArrow=classic;html=1;rounded=0;entryX=0.25;entryY=1;entryDx=0;entryDy=0;" edge="1" parent="1" target="Ygs99mXb4eGiHYUo4rxd-165">
          <mxGeometry width="50" height="50" relative="1" as="geometry">
            <mxPoint x="735" y="220" as="sourcePoint" />
            <mxPoint x="725" y="220" as="targetPoint" />
          </mxGeometry>
        </mxCell>
        <mxCell id="Ygs99mXb4eGiHYUo4rxd-170" value="" style="endArrow=classic;html=1;rounded=0;entryX=0.25;entryY=0;entryDx=0;entryDy=0;" edge="1" parent="1">
          <mxGeometry width="50" height="50" relative="1" as="geometry">
            <mxPoint x="765" y="280" as="sourcePoint" />
            <mxPoint x="765" y="310" as="targetPoint" />
          </mxGeometry>
        </mxCell>
        <mxCell id="Ygs99mXb4eGiHYUo4rxd-171" value="" style="endArrow=none;dashed=1;html=1;dashPattern=1 3;strokeWidth=2;rounded=0;" edge="1" parent="1">
          <mxGeometry width="50" height="50" relative="1" as="geometry">
            <mxPoint x="765" y="220" as="sourcePoint" />
            <mxPoint x="765" y="280" as="targetPoint" />
          </mxGeometry>
        </mxCell>
        <mxCell id="Ygs99mXb4eGiHYUo4rxd-172" value="Node data -" style="edgeLabel;html=1;align=center;verticalAlign=middle;resizable=0;points=[];" vertex="1" connectable="0" parent="Ygs99mXb4eGiHYUo4rxd-171">
          <mxGeometry x="-0.1858" y="-1" relative="1" as="geometry">
            <mxPoint y="16" as="offset" />
          </mxGeometry>
        </mxCell>
        <mxCell id="Ygs99mXb4eGiHYUo4rxd-173" value="" style="endArrow=classic;html=1;rounded=0;entryX=0.25;entryY=1;entryDx=0;entryDy=0;" edge="1" parent="1">
          <mxGeometry width="50" height="50" relative="1" as="geometry">
            <mxPoint x="765" y="220" as="sourcePoint" />
            <mxPoint x="765" y="190" as="targetPoint" />
          </mxGeometry>
        </mxCell>
        <mxCell id="Ygs99mXb4eGiHYUo4rxd-174" value="LED strip" style="rounded=0;whiteSpace=wrap;html=1;" vertex="1" parent="1">
          <mxGeometry x="-40" y="90" width="50" height="450" as="geometry" />
        </mxCell>
        <mxCell id="Ygs99mXb4eGiHYUo4rxd-177" style="edgeStyle=orthogonalEdgeStyle;rounded=0;orthogonalLoop=1;jettySize=auto;html=1;exitX=0.153;exitY=0.001;exitDx=0;exitDy=0;entryX=0.25;entryY=1;entryDx=0;entryDy=0;exitPerimeter=0;" edge="1" parent="1" source="Ygs99mXb4eGiHYUo4rxd-175" target="Ygs99mXb4eGiHYUo4rxd-174">
          <mxGeometry relative="1" as="geometry" />
        </mxCell>
        <mxCell id="Ygs99mXb4eGiHYUo4rxd-179" value="GND" style="edgeLabel;html=1;align=center;verticalAlign=middle;resizable=0;points=[];fontSize=8;" vertex="1" connectable="0" parent="Ygs99mXb4eGiHYUo4rxd-177">
          <mxGeometry x="0.0929" y="-1" relative="1" as="geometry">
            <mxPoint x="-14" as="offset" />
          </mxGeometry>
        </mxCell>
        <mxCell id="Ygs99mXb4eGiHYUo4rxd-175" value="Custom CAT6 pinout" style="rounded=0;whiteSpace=wrap;html=1;" vertex="1" parent="1">
          <mxGeometry x="21.25" y="620" width="128.75" height="65" as="geometry" />
        </mxCell>
        <mxCell id="Ygs99mXb4eGiHYUo4rxd-176" value="" style="endArrow=classic;html=1;rounded=0;entryX=0.5;entryY=1;entryDx=0;entryDy=0;exitX=0.228;exitY=0.001;exitDx=0;exitDy=0;exitPerimeter=0;" edge="1" parent="1" source="Ygs99mXb4eGiHYUo4rxd-175" target="Ygs99mXb4eGiHYUo4rxd-174">
          <mxGeometry width="50" height="50" relative="1" as="geometry">
            <mxPoint x="80" y="620" as="sourcePoint" />
            <mxPoint x="130" y="570" as="targetPoint" />
            <Array as="points">
              <mxPoint x="50" y="570" />
              <mxPoint x="-15" y="570" />
            </Array>
          </mxGeometry>
        </mxCell>
        <mxCell id="Ygs99mXb4eGiHYUo4rxd-180" value="LED data" style="edgeLabel;html=1;align=center;verticalAlign=middle;resizable=0;points=[];fontSize=8;" vertex="1" connectable="0" parent="Ygs99mXb4eGiHYUo4rxd-176">
          <mxGeometry x="0.1333" relative="1" as="geometry">
            <mxPoint as="offset" />
          </mxGeometry>
        </mxCell>
        <mxCell id="Ygs99mXb4eGiHYUo4rxd-178" value="" style="endArrow=classic;html=1;rounded=0;exitX=0.306;exitY=0.013;exitDx=0;exitDy=0;exitPerimeter=0;fillColor=#f8cecc;strokeColor=#b85450;" edge="1" parent="1" source="Ygs99mXb4eGiHYUo4rxd-175">
          <mxGeometry width="50" height="50" relative="1" as="geometry">
            <mxPoint x="64.98000000000002" y="610.52" as="sourcePoint" />
            <mxPoint y="540" as="targetPoint" />
            <Array as="points">
              <mxPoint x="60" y="560" />
              <mxPoint y="560" />
            </Array>
          </mxGeometry>
        </mxCell>
        <mxCell id="Ygs99mXb4eGiHYUo4rxd-181" value="+5V" style="edgeLabel;html=1;align=center;verticalAlign=middle;resizable=0;points=[];fontSize=8;" vertex="1" connectable="0" parent="Ygs99mXb4eGiHYUo4rxd-178">
          <mxGeometry x="0.0966" relative="1" as="geometry">
            <mxPoint x="6" as="offset" />
          </mxGeometry>
        </mxCell>
        <mxCell id="Ygs99mXb4eGiHYUo4rxd-182" value="" style="endArrow=classic;html=1;rounded=0;entryX=0;entryY=1;entryDx=0;entryDy=0;fillColor=#f8cecc;strokeColor=#b85450;" edge="1" parent="1" target="Ygs99mXb4eGiHYUo4rxd-2">
          <mxGeometry width="50" height="50" relative="1" as="geometry">
            <mxPoint x="110" y="620" as="sourcePoint" />
            <mxPoint x="110.84000000000015" y="471.67999999999995" as="targetPoint" />
          </mxGeometry>
        </mxCell>
        <mxCell id="Ygs99mXb4eGiHYUo4rxd-187" value="+12V" style="edgeLabel;html=1;align=center;verticalAlign=middle;resizable=0;points=[];fontSize=9;" vertex="1" connectable="0" parent="Ygs99mXb4eGiHYUo4rxd-182">
          <mxGeometry x="0.1444" y="-1" relative="1" as="geometry">
            <mxPoint x="-6" y="-18" as="offset" />
          </mxGeometry>
        </mxCell>
        <mxCell id="Ygs99mXb4eGiHYUo4rxd-183" value="" style="endArrow=classic;html=1;rounded=0;entryX=0.084;entryY=1.008;entryDx=0;entryDy=0;entryPerimeter=0;exitX=0.77;exitY=0.008;exitDx=0;exitDy=0;exitPerimeter=0;" edge="1" parent="1" source="Ygs99mXb4eGiHYUo4rxd-175" target="Ygs99mXb4eGiHYUo4rxd-2">
          <mxGeometry width="50" height="50" relative="1" as="geometry">
            <mxPoint x="120" y="610" as="sourcePoint" />
            <mxPoint x="120" y="472" as="targetPoint" />
          </mxGeometry>
        </mxCell>
        <mxCell id="Ygs99mXb4eGiHYUo4rxd-188" value="A" style="edgeLabel;html=1;align=center;verticalAlign=middle;resizable=0;points=[];" vertex="1" connectable="0" parent="Ygs99mXb4eGiHYUo4rxd-183">
          <mxGeometry x="0.12" relative="1" as="geometry">
            <mxPoint as="offset" />
          </mxGeometry>
        </mxCell>
        <mxCell id="Ygs99mXb4eGiHYUo4rxd-184" value="" style="endArrow=classic;html=1;rounded=0;exitX=0.75;exitY=0;exitDx=0;exitDy=0;entryX=0.25;entryY=1;entryDx=0;entryDy=0;" edge="1" parent="1">
          <mxGeometry width="50" height="50" relative="1" as="geometry">
            <mxPoint x="130" y="620" as="sourcePoint" />
            <mxPoint x="130" y="470" as="targetPoint" />
          </mxGeometry>
        </mxCell>
        <mxCell id="Ygs99mXb4eGiHYUo4rxd-189" value="B" style="edgeLabel;html=1;align=center;verticalAlign=middle;resizable=0;points=[];" vertex="1" connectable="0" parent="Ygs99mXb4eGiHYUo4rxd-184">
          <mxGeometry x="-0.1044" y="-1" relative="1" as="geometry">
            <mxPoint as="offset" />
          </mxGeometry>
        </mxCell>
        <mxCell id="Ygs99mXb4eGiHYUo4rxd-185" value="" style="endArrow=classic;html=1;rounded=0;exitX=0.75;exitY=0;exitDx=0;exitDy=0;entryX=0.25;entryY=1;entryDx=0;entryDy=0;" edge="1" parent="1" target="Ygs99mXb4eGiHYUo4rxd-2">
          <mxGeometry width="50" height="50" relative="1" as="geometry">
            <mxPoint x="140" y="620" as="sourcePoint" />
            <mxPoint x="142" y="470" as="targetPoint" />
          </mxGeometry>
        </mxCell>
        <mxCell id="Ygs99mXb4eGiHYUo4rxd-190" value="GND" style="edgeLabel;html=1;align=center;verticalAlign=middle;resizable=0;points=[];" vertex="1" connectable="0" parent="Ygs99mXb4eGiHYUo4rxd-185">
          <mxGeometry x="-0.3444" y="1" relative="1" as="geometry">
            <mxPoint x="6" as="offset" />
          </mxGeometry>
        </mxCell>
        <mxCell id="Ygs99mXb4eGiHYUo4rxd-194" value="" style="endArrow=classic;html=1;rounded=0;exitX=0.25;exitY=0;exitDx=0;exitDy=0;entryX=0.286;entryY=1.012;entryDx=0;entryDy=0;entryPerimeter=0;" edge="1" parent="1" source="Ygs99mXb4eGiHYUo4rxd-2" target="Ygs99mXb4eGiHYUo4rxd-74">
          <mxGeometry width="50" height="50" relative="1" as="geometry">
            <mxPoint x="120" y="420" as="sourcePoint" />
            <mxPoint x="170" y="370" as="targetPoint" />
            <Array as="points">
              <mxPoint x="140" y="400" />
              <mxPoint x="120" y="400" />
            </Array>
          </mxGeometry>
        </mxCell>
        <mxCell id="Ygs99mXb4eGiHYUo4rxd-195" value="" style="endArrow=classic;html=1;rounded=0;exitX=0.75;exitY=0;exitDx=0;exitDy=0;entryX=0.654;entryY=0.998;entryDx=0;entryDy=0;entryPerimeter=0;" edge="1" parent="1" source="Ygs99mXb4eGiHYUo4rxd-2" target="Ygs99mXb4eGiHYUo4rxd-84">
          <mxGeometry width="50" height="50" relative="1" as="geometry">
            <mxPoint x="120" y="420" as="sourcePoint" />
            <mxPoint x="170" y="370" as="targetPoint" />
            <Array as="points">
              <mxPoint x="200" y="390" />
              <mxPoint x="230" y="390" />
            </Array>
          </mxGeometry>
        </mxCell>
        <mxCell id="Ygs99mXb4eGiHYUo4rxd-196" value="" style="endArrow=classic;html=1;rounded=0;entryX=0.37;entryY=0.999;entryDx=0;entryDy=0;entryPerimeter=0;startArrow=oval;startFill=1;" edge="1" parent="1" target="Ygs99mXb4eGiHYUo4rxd-84">
          <mxGeometry width="50" height="50" relative="1" as="geometry">
            <mxPoint x="140" y="400" as="sourcePoint" />
            <mxPoint x="220" y="400" as="targetPoint" />
            <Array as="points">
              <mxPoint x="210" y="400" />
            </Array>
          </mxGeometry>
        </mxCell>
        <mxCell id="Ygs99mXb4eGiHYUo4rxd-197" value="" style="endArrow=classic;html=1;rounded=0;entryX=0.712;entryY=0.996;entryDx=0;entryDy=0;entryPerimeter=0;startArrow=oval;startFill=1;" edge="1" parent="1" target="Ygs99mXb4eGiHYUo4rxd-74">
          <mxGeometry width="50" height="50" relative="1" as="geometry">
            <mxPoint x="200" y="390" as="sourcePoint" />
            <mxPoint x="220" y="370" as="targetPoint" />
            <Array as="points">
              <mxPoint x="150" y="390" />
            </Array>
          </mxGeometry>
        </mxCell>
        <mxCell id="Ygs99mXb4eGiHYUo4rxd-200" value="" style="endArrow=classic;html=1;rounded=0;exitX=0.25;exitY=0;exitDx=0;exitDy=0;entryX=0.286;entryY=1.012;entryDx=0;entryDy=0;entryPerimeter=0;" edge="1" parent="1">
          <mxGeometry width="50" height="50" relative="1" as="geometry">
            <mxPoint x="315" y="410" as="sourcePoint" />
            <mxPoint x="295" y="371" as="targetPoint" />
            <Array as="points">
              <mxPoint x="315" y="400" />
              <mxPoint x="295" y="400" />
            </Array>
          </mxGeometry>
        </mxCell>
        <mxCell id="Ygs99mXb4eGiHYUo4rxd-201" value="" style="endArrow=classic;html=1;rounded=0;exitX=0.75;exitY=0;exitDx=0;exitDy=0;entryX=0.654;entryY=0.998;entryDx=0;entryDy=0;entryPerimeter=0;" edge="1" parent="1">
          <mxGeometry width="50" height="50" relative="1" as="geometry">
            <mxPoint x="375" y="410" as="sourcePoint" />
            <mxPoint x="405" y="370" as="targetPoint" />
            <Array as="points">
              <mxPoint x="375" y="390" />
              <mxPoint x="405" y="390" />
            </Array>
          </mxGeometry>
        </mxCell>
        <mxCell id="Ygs99mXb4eGiHYUo4rxd-202" value="" style="endArrow=classic;html=1;rounded=0;entryX=0.37;entryY=0.999;entryDx=0;entryDy=0;entryPerimeter=0;startArrow=oval;startFill=1;" edge="1" parent="1">
          <mxGeometry width="50" height="50" relative="1" as="geometry">
            <mxPoint x="315" y="400" as="sourcePoint" />
            <mxPoint x="385" y="370" as="targetPoint" />
            <Array as="points">
              <mxPoint x="385" y="400" />
            </Array>
          </mxGeometry>
        </mxCell>
        <mxCell id="Ygs99mXb4eGiHYUo4rxd-203" value="" style="endArrow=classic;html=1;rounded=0;entryX=0.712;entryY=0.996;entryDx=0;entryDy=0;entryPerimeter=0;startArrow=oval;startFill=1;" edge="1" parent="1">
          <mxGeometry width="50" height="50" relative="1" as="geometry">
            <mxPoint x="375" y="390" as="sourcePoint" />
            <mxPoint x="325" y="370" as="targetPoint" />
            <Array as="points">
              <mxPoint x="325" y="390" />
            </Array>
          </mxGeometry>
        </mxCell>
        <mxCell id="Ygs99mXb4eGiHYUo4rxd-204" value="" style="endArrow=classic;html=1;rounded=0;exitX=0.25;exitY=0;exitDx=0;exitDy=0;entryX=0.286;entryY=1.012;entryDx=0;entryDy=0;entryPerimeter=0;" edge="1" parent="1">
          <mxGeometry width="50" height="50" relative="1" as="geometry">
            <mxPoint x="495" y="410" as="sourcePoint" />
            <mxPoint x="475" y="371" as="targetPoint" />
            <Array as="points">
              <mxPoint x="495" y="400" />
              <mxPoint x="475" y="400" />
            </Array>
          </mxGeometry>
        </mxCell>
        <mxCell id="Ygs99mXb4eGiHYUo4rxd-205" value="" style="endArrow=classic;html=1;rounded=0;exitX=0.75;exitY=0;exitDx=0;exitDy=0;entryX=0.654;entryY=0.998;entryDx=0;entryDy=0;entryPerimeter=0;" edge="1" parent="1">
          <mxGeometry width="50" height="50" relative="1" as="geometry">
            <mxPoint x="555" y="410" as="sourcePoint" />
            <mxPoint x="585" y="370" as="targetPoint" />
            <Array as="points">
              <mxPoint x="555" y="390" />
              <mxPoint x="585" y="390" />
            </Array>
          </mxGeometry>
        </mxCell>
        <mxCell id="Ygs99mXb4eGiHYUo4rxd-206" value="" style="endArrow=classic;html=1;rounded=0;entryX=0.37;entryY=0.999;entryDx=0;entryDy=0;entryPerimeter=0;startArrow=oval;startFill=1;" edge="1" parent="1">
          <mxGeometry width="50" height="50" relative="1" as="geometry">
            <mxPoint x="495" y="400" as="sourcePoint" />
            <mxPoint x="565" y="370" as="targetPoint" />
            <Array as="points">
              <mxPoint x="565" y="400" />
            </Array>
          </mxGeometry>
        </mxCell>
        <mxCell id="Ygs99mXb4eGiHYUo4rxd-207" value="" style="endArrow=classic;html=1;rounded=0;entryX=0.712;entryY=0.996;entryDx=0;entryDy=0;entryPerimeter=0;startArrow=oval;startFill=1;" edge="1" parent="1">
          <mxGeometry width="50" height="50" relative="1" as="geometry">
            <mxPoint x="555" y="390" as="sourcePoint" />
            <mxPoint x="505" y="370" as="targetPoint" />
            <Array as="points">
              <mxPoint x="505" y="390" />
            </Array>
          </mxGeometry>
        </mxCell>
        <mxCell id="Ygs99mXb4eGiHYUo4rxd-208" value="" style="endArrow=classic;html=1;rounded=0;exitX=0.25;exitY=0;exitDx=0;exitDy=0;entryX=0.286;entryY=1.012;entryDx=0;entryDy=0;entryPerimeter=0;" edge="1" parent="1">
          <mxGeometry width="50" height="50" relative="1" as="geometry">
            <mxPoint x="675" y="410" as="sourcePoint" />
            <mxPoint x="655" y="371" as="targetPoint" />
            <Array as="points">
              <mxPoint x="675" y="400" />
              <mxPoint x="655" y="400" />
            </Array>
          </mxGeometry>
        </mxCell>
        <mxCell id="Ygs99mXb4eGiHYUo4rxd-209" value="" style="endArrow=classic;html=1;rounded=0;exitX=0.75;exitY=0;exitDx=0;exitDy=0;entryX=0.654;entryY=0.998;entryDx=0;entryDy=0;entryPerimeter=0;" edge="1" parent="1">
          <mxGeometry width="50" height="50" relative="1" as="geometry">
            <mxPoint x="735" y="410" as="sourcePoint" />
            <mxPoint x="765" y="370" as="targetPoint" />
            <Array as="points">
              <mxPoint x="735" y="390" />
              <mxPoint x="765" y="390" />
            </Array>
          </mxGeometry>
        </mxCell>
        <mxCell id="Ygs99mXb4eGiHYUo4rxd-210" value="" style="endArrow=classic;html=1;rounded=0;entryX=0.37;entryY=0.999;entryDx=0;entryDy=0;entryPerimeter=0;startArrow=oval;startFill=1;" edge="1" parent="1">
          <mxGeometry width="50" height="50" relative="1" as="geometry">
            <mxPoint x="675" y="400" as="sourcePoint" />
            <mxPoint x="745" y="370" as="targetPoint" />
            <Array as="points">
              <mxPoint x="745" y="400" />
            </Array>
          </mxGeometry>
        </mxCell>
        <mxCell id="Ygs99mXb4eGiHYUo4rxd-211" value="" style="endArrow=classic;html=1;rounded=0;entryX=0.712;entryY=0.996;entryDx=0;entryDy=0;entryPerimeter=0;startArrow=oval;startFill=1;" edge="1" parent="1">
          <mxGeometry width="50" height="50" relative="1" as="geometry">
            <mxPoint x="735" y="390" as="sourcePoint" />
            <mxPoint x="685" y="370" as="targetPoint" />
            <Array as="points">
              <mxPoint x="685" y="390" />
            </Array>
          </mxGeometry>
        </mxCell>
        <mxCell id="Ygs99mXb4eGiHYUo4rxd-212" value="LED strip" style="rounded=0;whiteSpace=wrap;html=1;" vertex="1" parent="1">
          <mxGeometry x="850" y="90" width="50" height="450" as="geometry" />
        </mxCell>
        <mxCell id="Ygs99mXb4eGiHYUo4rxd-213" value="" style="endArrow=classic;html=1;rounded=0;exitX=0.25;exitY=0;exitDx=0;exitDy=0;entryX=0.798;entryY=0;entryDx=0;entryDy=0;entryPerimeter=0;" edge="1" parent="1" source="Ygs99mXb4eGiHYUo4rxd-174" target="Ygs99mXb4eGiHYUo4rxd-212">
          <mxGeometry width="50" height="50" relative="1" as="geometry">
            <mxPoint x="-30" y="70" as="sourcePoint" />
            <mxPoint x="860" y="20" as="targetPoint" />
            <Array as="points">
              <mxPoint x="-27" y="40" />
              <mxPoint x="890" y="40" />
            </Array>
          </mxGeometry>
        </mxCell>
        <mxCell id="Ygs99mXb4eGiHYUo4rxd-214" value="" style="endArrow=classic;html=1;rounded=0;exitX=0.5;exitY=0;exitDx=0;exitDy=0;entryX=0.5;entryY=0;entryDx=0;entryDy=0;" edge="1" parent="1" source="Ygs99mXb4eGiHYUo4rxd-174" target="Ygs99mXb4eGiHYUo4rxd-212">
          <mxGeometry width="50" height="50" relative="1" as="geometry">
            <mxPoint x="110" y="90" as="sourcePoint" />
            <mxPoint x="880" y="40" as="targetPoint" />
            <Array as="points">
              <mxPoint x="-15" y="50" />
              <mxPoint x="875" y="50" />
            </Array>
          </mxGeometry>
        </mxCell>
        <mxCell id="Ygs99mXb4eGiHYUo4rxd-215" value="" style="endArrow=classic;html=1;rounded=0;exitX=0.75;exitY=0;exitDx=0;exitDy=0;entryX=0.198;entryY=-0.002;entryDx=0;entryDy=0;entryPerimeter=0;fillColor=#f8cecc;strokeColor=#b85450;" edge="1" parent="1" target="Ygs99mXb4eGiHYUo4rxd-212">
          <mxGeometry width="50" height="50" relative="1" as="geometry">
            <mxPoint x="-1" y="90" as="sourcePoint" />
            <mxPoint x="871.5" y="60" as="targetPoint" />
            <Array as="points">
              <mxPoint x="-1" y="60" />
              <mxPoint x="860" y="60" />
            </Array>
          </mxGeometry>
        </mxCell>
        <mxCell id="Ygs99mXb4eGiHYUo4rxd-216" value="" style="shape=flexArrow;endArrow=classic;html=1;rounded=0;entryX=0.5;entryY=1;entryDx=0;entryDy=0;exitX=0.5;exitY=0;exitDx=0;exitDy=0;" edge="1" parent="1" source="Ygs99mXb4eGiHYUo4rxd-218" target="Ygs99mXb4eGiHYUo4rxd-175">
          <mxGeometry width="50" height="50" relative="1" as="geometry">
            <mxPoint x="85" y="970" as="sourcePoint" />
            <mxPoint x="500" y="670" as="targetPoint" />
          </mxGeometry>
        </mxCell>
        <mxCell id="Ygs99mXb4eGiHYUo4rxd-217" value="Show computer with TouchDesigner" style="rounded=0;whiteSpace=wrap;html=1;" vertex="1" parent="1">
          <mxGeometry x="20" y="1030" width="135" height="60" as="geometry" />
        </mxCell>
        <mxCell id="Ygs99mXb4eGiHYUo4rxd-218" value="Custom CAT6 pinout" style="rounded=0;whiteSpace=wrap;html=1;" vertex="1" parent="1">
          <mxGeometry x="22.5" y="820" width="127.5" height="65" as="geometry" />
        </mxCell>
        <mxCell id="Ygs99mXb4eGiHYUo4rxd-220" value="Power supply" style="rounded=0;whiteSpace=wrap;html=1;" vertex="1" parent="1">
          <mxGeometry x="302.5" y="1030" width="135" height="60" as="geometry" />
        </mxCell>
        <mxCell id="Ygs99mXb4eGiHYUo4rxd-221" value="" style="endArrow=classic;html=1;rounded=0;exitX=0.25;exitY=0;exitDx=0;exitDy=0;entryX=0.5;entryY=1;entryDx=0;entryDy=0;" edge="1" parent="1" source="Ygs99mXb4eGiHYUo4rxd-220" target="Ygs99mXb4eGiHYUo4rxd-218">
          <mxGeometry relative="1" as="geometry">
            <mxPoint x="202.5" y="820" as="sourcePoint" />
            <mxPoint x="122.5" y="920" as="targetPoint" />
            <Array as="points">
              <mxPoint x="336.5" y="950" />
              <mxPoint x="87.5" y="950" />
            </Array>
          </mxGeometry>
        </mxCell>
        <mxCell id="Ygs99mXb4eGiHYUo4rxd-227" value="GND" style="edgeLabel;html=1;align=center;verticalAlign=middle;resizable=0;points=[];" vertex="1" connectable="0" parent="Ygs99mXb4eGiHYUo4rxd-221">
          <mxGeometry x="-0.7408" relative="1" as="geometry">
            <mxPoint x="-26" as="offset" />
          </mxGeometry>
        </mxCell>
        <mxCell id="Ygs99mXb4eGiHYUo4rxd-223" value="" style="endArrow=classic;html=1;rounded=0;exitX=0.5;exitY=0;exitDx=0;exitDy=0;entryX=0.25;entryY=1;entryDx=0;entryDy=0;" edge="1" parent="1">
          <mxGeometry width="50" height="50" relative="1" as="geometry">
            <mxPoint x="87.72" y="1030" as="sourcePoint" />
            <mxPoint x="55.22" y="885" as="targetPoint" />
            <Array as="points">
              <mxPoint x="87.72" y="990" />
              <mxPoint x="55.72" y="990" />
            </Array>
          </mxGeometry>
        </mxCell>
        <mxCell id="Ygs99mXb4eGiHYUo4rxd-224" value="Driver data" style="edgeLabel;html=1;align=center;verticalAlign=middle;resizable=0;points=[];" vertex="1" connectable="0" parent="Ygs99mXb4eGiHYUo4rxd-223">
          <mxGeometry x="0.3347" relative="1" as="geometry">
            <mxPoint x="-33" y="36" as="offset" />
          </mxGeometry>
        </mxCell>
        <mxCell id="Ygs99mXb4eGiHYUo4rxd-225" value="" style="endArrow=classic;html=1;rounded=0;exitX=0.75;exitY=0;exitDx=0;exitDy=0;entryX=0.768;entryY=0.993;entryDx=0;entryDy=0;entryPerimeter=0;fillColor=#f8cecc;strokeColor=#b85450;" edge="1" parent="1" source="Ygs99mXb4eGiHYUo4rxd-220" target="Ygs99mXb4eGiHYUo4rxd-218">
          <mxGeometry width="50" height="50" relative="1" as="geometry">
            <mxPoint x="212.5" y="970" as="sourcePoint" />
            <mxPoint x="122.5" y="890" as="targetPoint" />
            <Array as="points">
              <mxPoint x="402.5" y="920" />
              <mxPoint x="122.5" y="920" />
            </Array>
          </mxGeometry>
        </mxCell>
        <mxCell id="Ygs99mXb4eGiHYUo4rxd-226" value="+12V" style="edgeLabel;html=1;align=center;verticalAlign=middle;resizable=0;points=[];" vertex="1" connectable="0" parent="Ygs99mXb4eGiHYUo4rxd-225">
          <mxGeometry x="0.0359" y="2" relative="1" as="geometry">
            <mxPoint x="91" y="58" as="offset" />
          </mxGeometry>
        </mxCell>
        <mxCell id="Ygs99mXb4eGiHYUo4rxd-230" value="&lt;font style=&quot;font-size: 24px;&quot;&gt;Grid&lt;/font&gt;" style="text;html=1;strokeColor=none;fillColor=none;align=center;verticalAlign=middle;whiteSpace=wrap;rounded=0;" vertex="1" parent="1">
          <mxGeometry x="780" y="685" width="60" height="30" as="geometry" />
        </mxCell>
      </root>
    </mxGraphModel>
  </diagram>
</mxfile>
